For English, please scroll down!

************************************************************
Diego's Noordpool avontuur (2010)

Kleed je goed aan voor een extra lange en ijskoude opdracht op de Noordpool om samen met Diego de ijsberen te redden! Daarna reis je naar Groenland en Afrika waar je nog meer dierenavonturen beleeft!

- DE GROTE IJSBERENREDDING Diego beleeft samen met zijn vriendjes Baby Jaguar, Alicia, Dora de Verkenner en vele andere dieren een avontuur op de Noordpool om enkele kleine ijsbeertjes te redden van het smeltende ijs. Doe je mee aan de grote ijsberenredding?
- OP ZOEK NAAR VIS MET DE PAPEGAAIDUIKERS Kleed je goed aan voor een avontuur op Groenland, waar je samen met Diego en Puffy de kleine papegaaiduikers helpt bij het vangen van de lekkerste vis.
- WAAR IS DE BROER VAN OKAPI? Kom samen met Diego, Alicia en Baby Jaguar bij het mobiele reddingsteam om in het Afrikaanse regenwoud op zoek te gaan naar een verdwaalde okapi.

TIJDENS DIEGO S REDDINGSACTIES VOOR DIEREN LEREN KINDEREN:
* Alles over ijsberen, papegaaiduikers en Afrikaanse okapi s
* Geluidsherkenning, vergelijkingen maken, tellen en visuele vaardigheden
* Engelse taalvaardigheden en nieuwe liedjes
Plus andere manieren om de kennis en het probleemoplossende vermogen te vergroten! 

Taal: Engels, Frans en Nederlands
Ondertitelingen: Geen
Categorie : Beeld
Formaat : DVD5 
Bron : Retail
Genre : Animatie/ kinderen
Weblink : http://www.freerecordshop.nl/films/diego-noordpool-avontuur-8714865504918

******************************
Diego's Arctic Rescue (2010)

Diego and his sister Alicia are visiting the Arctic Wildlife Rescue Center, along with a Baby Jaguar. There, the group tries to help rescue baby polar bears who are stranded from their mom. But as things get a little difficult, a special guest stops by to save the day — none other than Dora the Explorer! 

Language: English, French and Dutch
Subtitles: None
Category : Movie 
Format : DVD5
Source : Retail
Genre : Animation/ Kids
Weblink : http://toonbarn.com/2009/09/diegos-arctic-rescue/


Video and Audio information:
******************************
Video
ID                               : 224 (0xE0)
Format                           : MPEG Video
Format version                   : Version 2
Format profile                   : Main@Main
Format settings, BVOP            : Yes
Format settings, Matrix          : Default
Duration                         : 24mn 18s
Bit rate mode                    : Constant
Bit rate                         : 5 005 Kbps
Width                            : 720 pixels
Height                           : 576 pixels
Display aspect ratio             : 4:3
Frame rate                       : 25.000 fps
Standard                         : PAL
Color space                      : YUV
Chroma subsampling               : 4:2:0
Bit depth                        : 8 bits
Bits/(Pixel*Frame)               : 0.483
Stream size                      : 870 MiB (85%)
Writing library                  : TMPGEnc 2.524.63.181

Audio #1
ID                               : 128 (0x80)
Format                           : AC-3
Format/Info                      : Audio Coding 3
Mode extension                   : CM (complete main)
Duration                         : 24mn 17s
Bit rate mode                    : Constant
Bit rate                         : 192 Kbps
Channel(s)                       : 2 channels
Channel positions                : Front: L R
Sampling rate                    : 48.0 KHz
Bit depth                        : 16 bits
Video delay                      : 1s 6ms
Stream size                      : 33.4 MiB (3%)

Audio #2
ID                               : 129 (0x81)
Format                           : AC-3
Format/Info                      : Audio Coding 3
Mode extension                   : CM (complete main)
Duration                         : 24mn 17s
Bit rate mode                    : Constant
Bit rate                         : 192 Kbps
Channel(s)                       : 2 channels
Channel positions                : Front: L R
Sampling rate                    : 48.0 KHz
Bit depth                        : 16 bits
Video delay                      : 1s 6ms
Stream size                      : 33.4 MiB (3%)

Audio #3
ID                               : 130 (0x82)
Format                           : AC-3
Format/Info                      : Audio Coding 3
Mode extension                   : CM (complete main)
Duration                         : 24mn 17s
Bit rate mode                    : Constant
Bit rate                         : 192 Kbps
Channel(s)                       : 2 channels
Channel positions                : Front: L R
Sampling rate                    : 48.0 KHz
Bit depth                        : 16 bits
Video delay                      : 1s 6ms
Stream size                      : 33.4 MiB (3%)

Audio #4
ID                               : 131 (0x83)
Format                           : AC-3
Format/Info                      : Audio Coding 3
Mode extension                   : CM (complete main)
Duration                         : 24mn 17s
Bit rate mode                    : Constant
Bit rate                         : 192 Kbps
Channel(s)                       : 2 channels
Channel positions                : Front: L R
Sampling rate                    : 48.0 KHz
Bit depth                        : 16 bits
Video delay                      : 1s 6ms
Stream size                      : 33.4 MiB (3%)

******************************
Hornigold TBS